<?xml version="1.0" encoding="utf-8"?>
<!-- Generator: Adobe Illustrator 21.1.0, SVG Export Plug-In . SVG Version: 6.00 Build 0)  -->
<svg version="1.1" id="Camada_1" xmlns="http://www.w3.org/2000/svg" xmlns:xlink="http://www.w3.org/1999/xlink" x="0px" y="0px"
	 viewBox="0 0 203.6 125.6" style="enable-background:new 0 0 203.6 125.6;" xml:space="preserve">
<style type="text/css">
	.st0{fill:#FFFFFF;}
</style>
<g>
	<polygon class="st0" points="99.5,16.3 99.5,41.1 102.5,41.1 102.5,19.3 187.5,19.3 187.5,104.3 102.5,104.3 102.5,95.7 99.5,95.7 
		99.5,107.4 190.6,107.4 190.6,16.3 	"/>
	<g>
		<path class="st0" d="M25.4,87.4c-6.9,0-12-5.6-12-12.1v-0.1c0-6.6,5.1-12.2,12.1-12.2c6.9,0,12,5.6,12,12.1v0.1
			C37.4,81.7,32.4,87.4,25.4,87.4z M35,75.1c0-5.6-4.2-10.1-9.6-10.1c-5.5,0-9.5,4.5-9.5,10v0.1c0,5.6,4.2,10.1,9.6,10.1
			C31,85.3,35,80.7,35,75.1L35,75.1z"/>
		<path class="st0" d="M62.1,86.8V72.9c0-4.8-2.7-8-7.4-8c-4.6,0-8.1,3.5-8.1,8.3v13.5h-2.2V63.4h2.2v4.4c1.6-2.7,4.2-4.9,8.4-4.9
			c5.9,0,9.3,4,9.3,9.6v14.3H62.1z"/>
		<path class="st0" d="M82.4,85.3c3.6,0,6.1-1.6,8-3.7L92,83c-2.4,2.6-5.2,4.4-9.7,4.4c-6.1,0-11.5-4.9-11.5-12.2v-0.1
			c0-6.8,4.8-12.2,11.1-12.2c6.6,0,10.7,5.3,10.7,12.2v0.1c0,0.3,0,0.5,0,0.8H73.2C73.6,81.9,77.8,85.3,82.4,85.3z M90.2,74
			c-0.3-4.7-3-9.1-8.4-9.1c-4.6,0-8.2,3.9-8.6,9.1H90.2z"/>
		<path class="st0" d="M99.2,86.8V53.4h3.5v33.4H99.2z"/>
		<path class="st0" d="M111,57.9v-3.9h4v3.9H111z M111.3,86.8V63.1h3.5v23.7H111.3z"/>
		<path class="st0" d="M126.5,86.8H123V63.1h3.5v4.1c0.8-1.3,1.8-2.4,3.1-3.3c1.3-0.9,2.9-1.4,5-1.4c1.4,0,2.7,0.2,3.8,0.7
			c1.1,0.5,2.1,1.1,2.8,1.9c0.8,0.8,1.4,1.8,1.8,3c0.4,1.2,0.6,2.4,0.6,3.8v14.7h-3.5V73c0-2.2-0.6-3.9-1.7-5.2
			c-1.1-1.3-2.7-1.9-4.9-1.9c-1,0-1.9,0.2-2.8,0.5c-0.9,0.4-1.6,0.9-2.3,1.5c-0.6,0.7-1.1,1.4-1.5,2.4c-0.4,0.9-0.5,1.9-0.5,3V86.8z
			"/>
		<path class="st0" d="M154.3,79.7c0.5,1,1.1,1.8,1.9,2.5c0.8,0.7,1.6,1.2,2.6,1.6c0.9,0.4,1.9,0.5,3,0.5c1.6,0,3.1-0.3,4.2-0.9
			c1.2-0.6,2.3-1.4,3.2-2.4l2.2,2c-1.2,1.3-2.6,2.4-4.1,3.2c-1.5,0.8-3.4,1.2-5.7,1.2c-1.6,0-3.1-0.3-4.6-0.9
			c-1.4-0.6-2.7-1.4-3.8-2.5c-1.1-1.1-1.9-2.4-2.6-3.9c-0.6-1.5-1-3.2-1-5c0-1.7,0.3-3.3,0.8-4.8c0.6-1.5,1.4-2.8,2.4-3.9
			c1-1.1,2.2-2,3.6-2.6c1.4-0.6,2.9-1,4.6-1c1.7,0,3.3,0.3,4.7,1c1.4,0.7,2.5,1.6,3.5,2.7c0.9,1.1,1.7,2.5,2.2,4
			c0.5,1.5,0.7,3.2,0.7,4.9c0,0.2,0,0.3,0,0.5c0,0.2,0,0.4,0,0.6h-18.7C153.5,77.6,153.8,78.7,154.3,79.7z M168.5,73.7
			c-0.1-1.1-0.3-2.1-0.7-3.1c-0.3-1-0.8-1.8-1.5-2.6c-0.6-0.7-1.4-1.3-2.3-1.8c-0.9-0.4-1.9-0.7-3.1-0.7c-1,0-2,0.2-2.9,0.6
			c-0.9,0.4-1.7,1-2.3,1.7c-0.7,0.7-1.2,1.6-1.6,2.5c-0.4,1-0.7,2-0.8,3.2H168.5z"/>
	</g>
</g>
</svg>
